M48
;GenerationSoftware,Autodesk,EAGLE,9.5.0*%
;CreationDate,2019-09-26T21:47:18Z*%
FMAT,2
ICI,OFF
METRIC,TZ,000.000
T6C0.800
T5C0.813
T4C0.900
T3C1.000
T2C1.016
T1C2.000
%
G90
M71
T1
X31070Y49530
X22270Y49530
T2
X19050Y17780
X19050Y20320
X33550Y31250
X33550Y33790
X19790Y33790
X19790Y31250
T3
X7620Y39370
X45720Y39370
X45720Y1270
X7600Y1300
X22860Y12520
X22860Y9920
X22860Y7320
X30660Y34110
X22860Y4720
X22860Y2120
X30660Y4720
X30660Y7320
X30660Y9920
X30660Y12520
X30660Y15120
X30660Y17720
X30660Y20320
X22860Y28910
X22860Y41910
X22860Y39310
X22860Y36710
X22860Y34110
X22860Y31510
X30660Y2120
X22860Y26310
X22860Y23710
X30660Y23710
X30660Y26310
X30660Y28910
X30660Y31510
X30660Y36710
X30660Y39310
X30660Y41910
X29170Y56530
X26670Y56530
X24170Y56530
X22860Y20320
X22860Y17720
X22860Y15120
T4
X40640Y50800
X40640Y43180
X12700Y50800
X12700Y43180
X7620Y50800
X7620Y43180
X45720Y50800
X45720Y43180
T5
X35560Y53340
X35560Y55880
X17780Y53340
X17780Y55880
T6
X12700Y57150
X10160Y57150
X43180Y57150
X40640Y57150
M30