G04 EAGLE Gerber RS-274X export*
G75*
%MOMM*%
%FSLAX34Y34*%
%LPD*%
%INBottom Copper*%
%IPPOS*%
%AMOC8*
5,1,8,0,0,1.08239X$1,22.5*%
G01*
%ADD10C,1.879600*%
%ADD11C,1.308000*%
%ADD12C,2.000000*%
%ADD13C,3.000000*%
%ADD14C,0.152400*%


D10*
X355600Y533400D03*
X355600Y558800D03*
X177800Y533400D03*
X177800Y558800D03*
X190500Y177800D03*
X190500Y203200D03*
X335500Y312500D03*
X335500Y337900D03*
X197900Y337900D03*
X197900Y312500D03*
D11*
X127000Y571500D03*
X101600Y571500D03*
X431800Y571500D03*
X406400Y571500D03*
D10*
X406400Y508000D03*
X406400Y431800D03*
X127000Y508000D03*
X127000Y431800D03*
X76200Y508000D03*
X76200Y431800D03*
X457200Y508000D03*
X457200Y431800D03*
D12*
X228600Y419100D03*
X228600Y393100D03*
X228600Y367100D03*
X228600Y341100D03*
X228600Y315100D03*
X228600Y289100D03*
X228600Y263100D03*
X228600Y237100D03*
X306600Y237100D03*
X306600Y263100D03*
X306600Y289100D03*
X306600Y315100D03*
X306600Y341100D03*
X306600Y367100D03*
X306600Y393100D03*
X306600Y419100D03*
D10*
X291700Y565300D03*
X266700Y565300D03*
X241700Y565300D03*
D13*
X310700Y495300D03*
X222700Y495300D03*
D12*
X228600Y203200D03*
X228600Y177200D03*
X228600Y151200D03*
X228600Y125200D03*
X228600Y99200D03*
X228600Y73200D03*
X228600Y47200D03*
X228600Y21200D03*
X306600Y21200D03*
X306600Y47200D03*
X306600Y73200D03*
X306600Y99200D03*
X306600Y125200D03*
X306600Y151200D03*
X306600Y177200D03*
X306600Y203200D03*
D14*
X228600Y159825D02*
X228600Y151200D01*
X228600Y388786D02*
X228600Y393100D01*
X186216Y307660D02*
X213266Y280610D01*
X213266Y175159D02*
X228600Y159825D01*
X213266Y175159D02*
X213266Y280610D01*
X186216Y346402D02*
X228600Y388786D01*
X186216Y346402D02*
X186216Y307660D01*
X306600Y159825D02*
X306600Y151200D01*
X306600Y384475D02*
X306600Y393100D01*
X306600Y384475D02*
X347184Y343891D01*
X347184Y200409D02*
X306600Y159825D01*
X347184Y200409D02*
X347184Y343891D01*
X306600Y185825D02*
X306600Y177200D01*
X306600Y254475D02*
X306600Y263100D01*
X294314Y198111D02*
X306600Y185825D01*
X294314Y242189D02*
X306600Y254475D01*
X294314Y242189D02*
X294314Y198111D01*
X228600Y185825D02*
X228600Y177200D01*
X228600Y254475D02*
X228600Y263100D01*
X216314Y198111D02*
X228600Y185825D01*
X216314Y242189D02*
X228600Y254475D01*
X216314Y242189D02*
X216314Y198111D01*
X228600Y289100D02*
X289225Y289100D01*
X324386Y301386D02*
X335500Y312500D01*
X301511Y301386D02*
X289225Y289100D01*
X301511Y301386D02*
X324386Y301386D01*
X289225Y367100D02*
X228600Y367100D01*
X318586Y354814D02*
X335500Y337900D01*
X301511Y354814D02*
X289225Y367100D01*
X301511Y354814D02*
X318586Y354814D01*
X306600Y289100D02*
X293536Y289100D01*
X223511Y276814D02*
X216314Y284011D01*
X216314Y294086D01*
X197900Y312500D01*
X281250Y276814D02*
X293536Y289100D01*
X281250Y276814D02*
X223511Y276814D01*
X216314Y372189D02*
X223511Y379386D01*
X293536Y367100D02*
X306600Y367100D01*
X216314Y356314D02*
X197900Y337900D01*
X216314Y356314D02*
X216314Y372189D01*
X223511Y379386D02*
X281250Y379386D01*
X293536Y367100D01*
M02*
