G04 EAGLE Gerber RS-274X export*
G75*
%MOMM*%
%FSLAX34Y34*%
%LPD*%
%IN*%
%IPPOS*%
%AMOC8*
5,1,8,0,0,1.08239X$1,22.5*%
G01*
%ADD10C,0.254000*%


D10*
X50800Y-12700D02*
X482400Y-12700D01*
X482400Y606300D01*
X50800Y606300D01*
X50800Y-12700D01*
X81200Y393419D02*
X81137Y392861D01*
X81012Y392314D01*
X80827Y391784D01*
X80583Y391278D01*
X80284Y390802D01*
X79934Y390363D01*
X79537Y389966D01*
X79098Y389616D01*
X78622Y389317D01*
X78116Y389073D01*
X77586Y388888D01*
X77039Y388763D01*
X76481Y388700D01*
X75919Y388700D01*
X75361Y388763D01*
X74814Y388888D01*
X74284Y389073D01*
X73778Y389317D01*
X73302Y389616D01*
X72863Y389966D01*
X72466Y390363D01*
X72116Y390802D01*
X71817Y391278D01*
X71573Y391784D01*
X71388Y392314D01*
X71263Y392861D01*
X71200Y393419D01*
X71200Y393981D01*
X71263Y394539D01*
X71388Y395086D01*
X71573Y395616D01*
X71817Y396122D01*
X72116Y396598D01*
X72466Y397037D01*
X72863Y397434D01*
X73302Y397784D01*
X73778Y398083D01*
X74284Y398327D01*
X74814Y398512D01*
X75361Y398637D01*
X75919Y398700D01*
X76481Y398700D01*
X77039Y398637D01*
X77586Y398512D01*
X78116Y398327D01*
X78622Y398083D01*
X79098Y397784D01*
X79537Y397434D01*
X79934Y397037D01*
X80284Y396598D01*
X80583Y396122D01*
X80827Y395616D01*
X81012Y395086D01*
X81137Y394539D01*
X81200Y393981D01*
X81200Y393419D01*
X462200Y393419D02*
X462137Y392861D01*
X462012Y392314D01*
X461827Y391784D01*
X461583Y391278D01*
X461284Y390802D01*
X460934Y390363D01*
X460537Y389966D01*
X460098Y389616D01*
X459622Y389317D01*
X459116Y389073D01*
X458586Y388888D01*
X458039Y388763D01*
X457481Y388700D01*
X456919Y388700D01*
X456361Y388763D01*
X455814Y388888D01*
X455284Y389073D01*
X454778Y389317D01*
X454302Y389616D01*
X453863Y389966D01*
X453466Y390363D01*
X453116Y390802D01*
X452817Y391278D01*
X452573Y391784D01*
X452388Y392314D01*
X452263Y392861D01*
X452200Y393419D01*
X452200Y393981D01*
X452263Y394539D01*
X452388Y395086D01*
X452573Y395616D01*
X452817Y396122D01*
X453116Y396598D01*
X453466Y397037D01*
X453863Y397434D01*
X454302Y397784D01*
X454778Y398083D01*
X455284Y398327D01*
X455814Y398512D01*
X456361Y398637D01*
X456919Y398700D01*
X457481Y398700D01*
X458039Y398637D01*
X458586Y398512D01*
X459116Y398327D01*
X459622Y398083D01*
X460098Y397784D01*
X460537Y397434D01*
X460934Y397037D01*
X461284Y396598D01*
X461583Y396122D01*
X461827Y395616D01*
X462012Y395086D01*
X462137Y394539D01*
X462200Y393981D01*
X462200Y393419D01*
X462200Y12419D02*
X462137Y11861D01*
X462012Y11314D01*
X461827Y10784D01*
X461583Y10278D01*
X461284Y9802D01*
X460934Y9363D01*
X460537Y8966D01*
X460098Y8616D01*
X459622Y8317D01*
X459116Y8073D01*
X458586Y7888D01*
X458039Y7763D01*
X457481Y7700D01*
X456919Y7700D01*
X456361Y7763D01*
X455814Y7888D01*
X455284Y8073D01*
X454778Y8317D01*
X454302Y8616D01*
X453863Y8966D01*
X453466Y9363D01*
X453116Y9802D01*
X452817Y10278D01*
X452573Y10784D01*
X452388Y11314D01*
X452263Y11861D01*
X452200Y12419D01*
X452200Y12981D01*
X452263Y13539D01*
X452388Y14086D01*
X452573Y14616D01*
X452817Y15122D01*
X453116Y15598D01*
X453466Y16037D01*
X453863Y16434D01*
X454302Y16784D01*
X454778Y17083D01*
X455284Y17327D01*
X455814Y17512D01*
X456361Y17637D01*
X456919Y17700D01*
X457481Y17700D01*
X458039Y17637D01*
X458586Y17512D01*
X459116Y17327D01*
X459622Y17083D01*
X460098Y16784D01*
X460537Y16434D01*
X460934Y16037D01*
X461284Y15598D01*
X461583Y15122D01*
X461827Y14616D01*
X462012Y14086D01*
X462137Y13539D01*
X462200Y12981D01*
X462200Y12419D01*
X81000Y12719D02*
X80937Y12161D01*
X80812Y11614D01*
X80627Y11084D01*
X80383Y10578D01*
X80084Y10102D01*
X79734Y9663D01*
X79337Y9266D01*
X78898Y8916D01*
X78422Y8617D01*
X77916Y8373D01*
X77386Y8188D01*
X76839Y8063D01*
X76281Y8000D01*
X75719Y8000D01*
X75161Y8063D01*
X74614Y8188D01*
X74084Y8373D01*
X73578Y8617D01*
X73102Y8916D01*
X72663Y9266D01*
X72266Y9663D01*
X71916Y10102D01*
X71617Y10578D01*
X71373Y11084D01*
X71188Y11614D01*
X71063Y12161D01*
X71000Y12719D01*
X71000Y13281D01*
X71063Y13839D01*
X71188Y14386D01*
X71373Y14916D01*
X71617Y15422D01*
X71916Y15898D01*
X72266Y16337D01*
X72663Y16734D01*
X73102Y17084D01*
X73578Y17383D01*
X74084Y17627D01*
X74614Y17812D01*
X75161Y17937D01*
X75719Y18000D01*
X76281Y18000D01*
X76839Y17937D01*
X77386Y17812D01*
X77916Y17627D01*
X78422Y17383D01*
X78898Y17084D01*
X79337Y16734D01*
X79734Y16337D01*
X80084Y15898D01*
X80383Y15422D01*
X80627Y14916D01*
X80812Y14386D01*
X80937Y13839D01*
X81000Y13281D01*
X81000Y12719D01*
M02*
