G04 EAGLE Gerber RS-274X export*
G75*
%MOMM*%
%FSLAX34Y34*%
%LPD*%
%INSoldermask Top*%
%IPPOS*%
%AMOC8*
5,1,8,0,0,1.08239X$1,22.5*%
G01*
%ADD10C,1.203200*%
%ADD11C,2.082800*%
%ADD12C,1.511200*%
%ADD13C,2.203200*%
%ADD14R,0.753200X1.403200*%
%ADD15C,2.000000*%
%ADD16C,1.000000*%


D10*
X76200Y393700D03*
X457200Y393700D03*
X457200Y12700D03*
X76000Y13000D03*
D11*
X355600Y533400D03*
X355600Y558800D03*
X177800Y533400D03*
X177800Y558800D03*
X190500Y177800D03*
X190500Y203200D03*
X335500Y312500D03*
X335500Y337900D03*
X197900Y337900D03*
X197900Y312500D03*
D12*
X127000Y571500D03*
X101600Y571500D03*
X431800Y571500D03*
X406400Y571500D03*
D11*
X406400Y508000D03*
X406400Y431800D03*
X127000Y508000D03*
X127000Y431800D03*
X76200Y508000D03*
X76200Y431800D03*
X457200Y508000D03*
X457200Y431800D03*
D13*
X228600Y419100D03*
X228600Y393100D03*
X228600Y367100D03*
X228600Y341100D03*
X228600Y315100D03*
X228600Y289100D03*
X228600Y263100D03*
X228600Y237100D03*
X306600Y237100D03*
X306600Y263100D03*
X306600Y289100D03*
X306600Y315100D03*
X306600Y341100D03*
X306600Y367100D03*
X306600Y393100D03*
X306600Y419100D03*
D14*
X346100Y456899D03*
X355600Y456899D03*
X365100Y456899D03*
X365100Y482901D03*
X346100Y482901D03*
X168300Y456899D03*
X177800Y456899D03*
X187300Y456899D03*
X187300Y482901D03*
X168300Y482901D03*
D15*
X222700Y495300D03*
X310700Y495300D03*
D16*
X241700Y565300D03*
X266700Y565300D03*
X291700Y565300D03*
D13*
X228600Y203200D03*
X228600Y177200D03*
X228600Y151200D03*
X228600Y125200D03*
X228600Y99200D03*
X228600Y73200D03*
X228600Y47200D03*
X228600Y21200D03*
X306600Y21200D03*
X306600Y47200D03*
X306600Y73200D03*
X306600Y99200D03*
X306600Y125200D03*
X306600Y151200D03*
X306600Y177200D03*
X306600Y203200D03*
M02*
